<?xml version="1.0" standalone="no"?>
<!DOCTYPE svg PUBLIC "-//W3C//DTD SVG 20010904//EN"
 "http://www.w3.org/TR/2001/REC-SVG-20010904/DTD/svg10.dtd">
<svg version="1.0" xmlns="http://www.w3.org/2000/svg"
 width="16.000000pt" height="16.000000pt" viewBox="0 0 16.000000 16.000000"
 preserveAspectRatio="xMidYMid meet">
<metadata>
Created by potrace 1.11, written by Peter Selinger 2001-2013
</metadata>
<g transform="translate(0.000000,16.000000) scale(0.008939,-0.008939)"
fill="#000000" stroke="none">
<path d="M419 1193 c-1 -5 -1 -12 0 -17 1 -5 -5 -6 -14 -2 -10 3 -14 2 -10 -5
9 -14 28 -6 31 14 1 9 0 17 -2 17 -2 0 -5 -3 -5 -7z"/>
<path d="M1179 1183 c-13 -16 -12 -17 4 -4 9 7 17 15 17 17 0 8 -8 3 -21 -13z"/>
<path d="M1215 1190 c-3 -5 -1 -10 4 -10 6 0 11 5 11 10 0 6 -2 10 -4 10 -3 0
-8 -4 -11 -10z"/>
<path d="M1291 1184 c0 -11 3 -14 6 -6 3 7 2 16 -1 19 -3 4 -6 -2 -5 -13z"/>
<path d="M1400 1190 c-9 -6 -10 -10 -3 -10 6 0 15 5 18 10 8 12 4 12 -15 0z"/>
<path d="M473 1178 c1 -7 -7 -13 -17 -13 -11 0 -21 -5 -23 -12 -3 -7 4 -11 16
-10 12 1 21 6 21 11 0 16 10 0 15 -24 4 -20 3 -21 -13 -8 -9 9 -22 13 -29 11
-6 -2 -14 0 -17 6 -4 6 -13 8 -21 4 -8 -3 -15 0 -15 6 0 6 -5 11 -11 11 -5 0
-7 -4 -4 -10 3 -5 1 -11 -4 -11 -6 -1 -17 -2 -23 -3 -7 -1 -11 -10 -10 -21 2
-11 1 -17 -4 -13 -4 4 -14 2 -22 -5 -13 -10 -15 -9 -10 4 4 9 1 16 -7 16 -10
0 -11 -5 -4 -18 5 -10 14 -21 19 -24 11 -7 -19 -54 -34 -55 -5 0 -3 7 4 15 11
13 10 14 -3 9 -8 -3 -18 -12 -21 -20 -3 -9 -11 -12 -18 -8 -7 4 -10 4 -6 -1 4
-4 2 -15 -4 -24 -7 -9 -1 -6 12 5 24 21 50 22 50 3 0 -4 -6 -6 -13 -3 -18 6
-42 -22 -27 -31 5 -3 10 -11 10 -17 0 -7 -4 -7 -13 1 -10 8 -14 7 -14 -4 0 -8
5 -11 10 -8 6 4 8 -1 4 -11 -4 -10 -3 -15 3 -11 6 3 10 1 10 -4 0 -6 -5 -11
-11 -11 -5 0 -7 -4 -4 -10 12 -19 23 -10 20 18 -2 15 2 35 7 46 6 10 6 16 1
13 -5 -4 -10 0 -10 7 0 8 7 12 14 9 8 -3 11 -12 8 -22 -4 -9 -9 -22 -12 -28
-3 -7 -1 -13 5 -13 12 0 11 -18 -2 -39 -7 -11 -5 -13 7 -8 24 9 21 0 -4 -14
-17 -9 -20 -8 -14 3 5 7 5 10 0 6 -4 -4 -14 -3 -22 3 -9 9 -13 8 -13 0 0 -6 5
-11 11 -11 5 0 7 -5 3 -12 -5 -7 -3 -8 5 -4 18 11 10 -26 -9 -42 -13 -10 -12
-11 4 -5 13 4 17 3 12 -5 -4 -7 -2 -12 6 -12 10 0 9 -3 -2 -11 -12 -8 -10 -9
7 -4 25 7 41 -12 23 -28 -10 -9 -12 -8 -7 6 4 10 3 16 -2 13 -5 -3 -8 -16 -8
-30 l0 -23 21 21 c11 11 20 25 18 29 -1 5 2 5 8 2 8 -5 7 -12 -3 -23 -23 -27
-29 -42 -18 -42 6 0 11 7 11 16 0 8 5 12 11 9 6 -4 8 -9 5 -12 -11 -11 16 -44
30 -39 8 3 17 -1 20 -9 4 -8 10 -15 16 -15 5 0 7 4 4 9 -3 4 1 17 8 27 13 17
14 16 9 -10 -4 -21 -2 -27 6 -22 6 4 9 11 6 16 -3 4 3 14 13 21 15 13 16 12 3
-3 -9 -13 -10 -18 -2 -18 7 0 9 -5 4 -12 -11 -18 -12 -37 -3 -43 4 -2 7 5 6
17 0 12 5 23 12 25 8 3 10 -2 6 -14 -4 -13 -3 -14 3 -5 12 16 33 12 51 -8 11
-13 11 -11 1 9 -10 21 -9 23 6 18 9 -4 19 -7 21 -7 3 0 2 -5 -2 -12 -4 -7 -3
-8 5 -4 6 4 9 12 6 17 -4 5 1 9 9 9 9 0 15 -3 14 -7 -2 -5 2 -8 7 -8 6 0 9 4
7 8 -1 5 6 6 16 3 11 -4 24 0 32 9 12 15 0 22 -14 8 -13 -13 -44 -10 -39 4 4
10 9 11 18 3 9 -7 15 -7 19 -1 4 5 15 9 25 8 17 -1 18 -3 4 -24 -9 -13 -20
-23 -26 -23 -6 0 -7 -3 -4 -7 4 -3 19 4 33 18 16 15 34 23 51 21 17 -3 23 0
18 8 -6 9 -2 9 13 1 14 -7 23 -8 27 -1 10 16 28 12 22 -5 -4 -8 -2 -17 4 -20
5 -4 7 -10 5 -14 -3 -4 1 -8 9 -8 8 0 13 2 10 5 -2 2 2 11 10 19 8 8 15 20 15
26 0 7 -4 7 -9 -2 -5 -8 -17 -16 -27 -17 -15 -2 -16 -1 -1 13 8 9 25 16 38 17
21 1 39 36 18 36 -5 0 -9 5 -9 11 0 8 5 7 15 -1 9 -7 13 -15 10 -18 -3 -3 1
-12 8 -20 10 -13 9 -14 -2 -7 -10 5 -12 4 -7 -4 4 -6 3 -10 -2 -9 -6 2 -10 -1
-10 -6 0 -5 -6 -13 -14 -17 -9 -6 -9 -9 -1 -9 6 0 15 5 18 10 5 8 12 7 23 -2
15 -11 15 -11 4 4 -9 11 -10 18 -2 23 5 3 10 3 10 -2 0 -4 4 -14 9 -22 7 -10
13 -11 31 -1 18 10 24 9 31 -1 6 -10 11 -10 25 2 15 13 16 12 10 -11 -6 -19
-5 -21 3 -10 6 8 8 23 5 33 -3 9 0 17 6 17 6 0 8 -4 5 -10 -9 -14 8 -12 25 3
8 6 6 2 -4 -11 -11 -12 -16 -25 -13 -29 4 -3 7 -1 7 5 0 7 5 12 11 12 5 0 7
-5 3 -12 -4 -7 -3 -8 4 -4 11 7 17 -6 13 -27 -1 -5 3 -6 9 -2 7 4 7 13 -1 27
-9 17 -8 19 9 14 11 -4 24 0 32 9 12 15 0 22 -14 8 -13 -13 -44 -10 -39 4 4 9
9 10 18 3 6 -5 15 -6 19 -2 10 10 66 10 66 0 0 -4 5 -8 11 -8 5 0 8 4 5 8 -2
4 6 8 20 8 13 0 24 -4 24 -8 0 -4 5 -8 11 -8 5 0 8 4 5 8 -2 4 6 8 20 8 13 0
24 -4 24 -8 0 -7 -15 -12 -32 -9 -5 0 -8 -4 -8 -10 0 -6 -5 -7 -12 -2 -24 15
-102 10 -120 -8 -14 -15 -14 -18 -2 -23 8 -3 12 -2 9 3 -9 16 15 24 30 11 11
-9 15 -9 15 -1 0 6 5 11 11 11 5 0 7 -6 3 -12 -6 -10 -4 -10 7 0 14 13 33 17
25 4 -2 -4 6 -8 19 -8 13 0 22 3 19 7 -2 4 3 9 10 12 11 4 13 0 11 -15 -3 -11
-1 -17 3 -14 4 4 7 13 7 18 0 6 6 13 14 16 8 3 11 0 7 -6 -3 -6 1 -9 11 -8 10
2 23 16 30 32 7 18 12 22 13 12 0 -20 20 -20 36 1 9 11 11 11 11 -3 0 -16 -6
-19 -38 -19 -9 0 -16 -6 -16 -13 0 -11 4 -11 14 -2 12 9 13 6 9 -17 -3 -15 -2
-24 2 -20 7 6 8 10 11 36 0 5 6 7 11 4 6 -3 10 -1 10 5 0 6 4 9 9 6 4 -3 7 5
6 19 -2 18 1 22 13 17 10 -4 12 -7 4 -10 -7 -2 -9 -8 -6 -13 3 -6 17 4 30 22
13 18 24 28 24 21 0 -7 5 -12 11 -12 8 0 8 5 -1 15 -10 12 -9 16 4 21 9 3 13
11 9 17 -4 6 0 8 11 4 14 -6 15 -3 6 13 -6 11 -14 20 -17 20 -3 0 -3 -3 0 -6
3 -4 -8 -26 -25 -50 -17 -24 -34 -42 -37 -39 -2 3 0 10 6 16 6 6 10 17 9 23
-2 6 -1 8 1 3 3 -4 9 -4 14 -1 6 3 5 11 -2 20 -10 12 -9 13 4 8 11 -4 15 0 13
13 -5 28 3 34 27 21 12 -7 27 -13 33 -14 13 -2 13 21 0 33 -4 4 -6 4 -4 -2 2
-5 -1 -12 -6 -15 -5 -3 -11 9 -12 25 -6 51 -7 55 -16 55 -5 0 -6 5 -2 12 4 7
3 8 -4 4 -8 -5 -9 -13 -2 -25 5 -10 6 -21 3 -25 -3 -3 -1 -6 5 -6 7 0 12 -8
12 -17 0 -14 -3 -14 -20 5 -12 13 -17 28 -13 38 4 10 2 15 -3 12 -5 -4 -18 0
-29 8 -10 8 -14 14 -9 14 6 0 14 -4 20 -10 6 -6 16 2 27 22 17 29 17 30 1 17
-16 -12 -17 -12 -12 2 4 11 0 15 -16 15 -12 -1 -20 4 -19 12 2 6 -3 12 -10 12
-6 0 -4 5 6 11 14 8 16 14 6 25 -6 7 -16 11 -23 7 -6 -3 -3 3 7 14 16 19 52
29 41 11 -3 -5 -10 -5 -16 -2 -7 5 -8 2 -4 -5 5 -7 11 -10 14 -7 3 3 12 0 21
-7 14 -11 14 -10 2 6 -15 18 -2 24 16 6 8 -8 13 -8 18 0 3 6 3 11 -2 10 -20
-4 -27 2 -13 12 13 9 12 10 -2 5 -10 -3 -25 -3 -33 0 -11 5 -12 10 -3 24 7 10
15 17 19 14 4 -2 9 2 12 10 4 9 -3 13 -21 14 -56 0 -56 0 -38 27 21 32 21 46
0 17 -15 -22 -17 -22 -35 -6 -10 9 -19 14 -19 9 0 -4 -12 0 -26 10 -16 10 -23
12 -18 4 4 -7 9 -23 10 -35 2 -17 -3 -21 -24 -21 -15 0 -21 2 -14 4 6 3 9 9 6
14 -3 6 -11 5 -20 -2 -8 -6 -14 -8 -14 -3 0 5 -5 2 -11 -6 -8 -11 -12 -12 -16
-2 -2 6 -10 9 -15 6 -7 -4 -8 -2 -4 4 4 6 13 9 21 5 18 -6 19 6 4 27 -9 12
-10 11 -5 -5 l6 -20 -16 20 c-14 16 -16 17 -11 3 6 -18 -7 -25 -17 -9 -9 14
-49 7 -53 -9 -3 -10 -2 -11 4 -4 10 14 44 14 36 1 -4 -6 -1 -7 7 -2 8 5 11 4
6 -3 -3 -6 2 -15 11 -21 10 -6 13 -11 6 -11 -6 0 -14 4 -18 10 -3 5 -11 8 -18
6 -7 -1 -9 -1 -4 1 4 3 4 9 1 14 -3 6 -11 5 -20 -2 -8 -6 -14 -8 -14 -3 0 5
-5 2 -10 -6 -8 -13 -11 -12 -24 5 -12 17 -12 21 1 30 14 10 14 12 -1 12 -17 0
-17 -1 -21 -34 -1 -13 2 -23 8 -23 6 0 8 -3 4 -6 -3 -3 -12 -2 -19 2 -7 5 -22
9 -33 9 -35 2 -57 16 -45 30 7 8 5 12 -5 12 -7 0 -13 -5 -12 -11 1 -5 -3 -10
-8 -11 -13 0 -65 -41 -65 -50 0 -4 6 -2 13 4 8 6 18 7 22 3 5 -4 5 -1 1 5 -5
9 -2 11 10 6 11 -4 13 -8 6 -11 -7 -2 -9 -9 -5 -15 4 -7 1 -7 -9 1 -11 9 -18
10 -23 2 -3 -5 -13 -10 -21 -10 -9 0 -12 5 -8 11 4 8 0 8 -15 0 -15 -8 -27 -9
-41 -1 -16 9 -18 8 -14 -5 10 -25 -7 -17 -38 17 -15 17 -28 28 -28 24 0 -5 -6
-3 -14 3 -11 9 -16 9 -22 0 -5 -8 -3 -10 7 -4 8 5 11 4 6 0 -4 -5 -16 -9 -27
-10 -18 -2 -19 0 -5 15 8 9 15 21 15 26 0 5 -4 4 -8 -2 -4 -6 -16 -16 -27 -22
-16 -9 -26 -6 -51 13 -27 21 -34 22 -43 11 -9 -11 -9 -16 0 -22 7 -4 9 -3 6 3
-3 5 0 10 7 10 8 0 12 -6 9 -14 -7 -17 -18 -17 -33 2 -10 12 -10 18 1 33 7 9
9 14 5 10 -5 -4 -15 -3 -23 4 -11 9 -13 8 -11 -2 2 -7 -3 -15 -11 -18 -9 -3
-11 0 -6 8 6 9 3 9 -13 1 -27 -14 -35 -14 -26 2 6 9 4 9 -8 -1 -11 -9 -18 -9
-21 -2 -4 7 -5 7 -4 0 2 -7 5 -10 8 -8 3 2 13 -3 22 -11 11 -9 17 -10 17 -2 0
6 5 11 11 11 5 0 7 -5 4 -10 -8 -13 18 -8 27 5 12 15 10 -7 -2 -25 -7 -11 -10
-11 -10 -2 0 7 -5 10 -10 7 -6 -4 -7 -12 -4 -18 4 -7 -5 -1 -19 12 -24 22 -27
22 -33 6 -6 -16 -8 -15 -19 6 -7 13 -11 29 -8 36 3 7 0 13 -6 13 -6 0 -10 -6
-8 -12z m945 -31 c17 -11 15 -24 -5 -31 -10 -4 -14 -4 -10 0 9 9 -13 35 -24
28 -5 -3 -9 0 -9 5 0 12 27 10 48 -2z m-1004 -18 c-2 -4 2 -10 8 -13 7 -3 3
-3 -10 0 -16 4 -30 -3 -51 -23 -22 -22 -31 -26 -39 -16 -8 8 -8 14 -2 18 6 3
10 1 10 -6 0 -8 4 -8 15 1 11 9 12 16 4 26 -8 10 -5 12 16 8 15 -3 24 -1 22 4
-3 4 3 8 13 8 10 0 17 -3 14 -7z m627 -6 c9 -9 7 -11 -7 -8 -11 2 -21 4 -24 5
-3 1 -9 2 -13 1 -5 -1 -6 3 -3 8 8 12 33 8 47 -6z m-240 -12 c7 12 9 11 9 -1
1 -24 48 -54 65 -40 10 8 15 8 20 -1 6 -8 10 -8 15 2 7 10 12 10 23 1 7 -7 16
-9 19 -6 3 3 9 -1 14 -8 4 -7 4 -10 -1 -6 -4 4 -16 -3 -27 -15 -11 -12 -17
-16 -13 -9 3 6 2 12 -3 12 -5 0 -12 -9 -15 -21 -3 -12 -10 -18 -15 -15 -6 3
-13 1 -15 -4 -3 -6 -4 -5 -2 2 1 7 8 12 14 10 6 -1 11 4 11 11 0 8 -7 14 -15
14 -8 0 -15 -4 -15 -9 0 -4 -5 -8 -11 -8 -5 0 -7 5 -4 10 3 6 -1 10 -9 10 -9
0 -16 3 -16 8 0 4 -7 16 -16 27 -12 16 -16 17 -23 6 -6 -9 -8 -4 -8 15 0 16 2
23 5 15 4 -11 6 -11 13 0z m-236 -110 c-3 -5 -1 -12 5 -16 5 -3 10 -1 10 4 0
6 4 11 10 11 5 0 6 -7 3 -17 -4 -11 -3 -14 5 -9 7 4 12 2 12 -3 0 -6 3 -10 8
-10 4 1 14 1 22 0 13 -1 13 -2 0 -11 -13 -8 -13 -10 2 -10 9 0 18 3 21 8 2 4
3 2 1 -4 -1 -6 2 -16 6 -20 5 -5 5 -15 -1 -24 -9 -13 -10 -13 -6 2 6 16 -20
35 -31 23 -3 -3 1 -5 8 -5 7 0 10 -3 7 -6 -10 -11 13 -45 26 -39 7 4 4 0 -5
-8 -10 -8 -15 -17 -11 -21 4 -4 -1 -4 -11 0 -13 5 -17 4 -12 -4 4 -7 -2 -9
-19 -6 -14 2 -25 1 -24 -3 3 -20 -3 -29 -21 -30 -11 -1 -20 4 -20 10 0 7 -4 6
-10 -3 -5 -8 -10 -10 -10 -4 0 6 8 18 17 25 14 12 16 12 8 0 -6 -10 -4 -12 5
-6 9 5 11 4 6 -3 -5 -8 -2 -10 8 -6 9 3 14 10 11 15 -7 11 30 30 40 21 5 -4 5
-1 1 5 -5 9 -2 11 8 7 9 -3 16 -2 16 3 0 16 -33 11 -54 -9 -27 -24 -44 -23
-21 2 10 11 14 20 9 20 -5 0 -15 -9 -22 -20 -7 -11 -17 -20 -24 -20 -6 0 -3
10 8 23 10 12 12 17 5 10 -7 -6 -21 -9 -30 -6 -10 3 -12 2 -5 -4 6 -4 10 -16
8 -26 -3 -22 -14 -36 -14 -18 0 7 -5 9 -12 5 -10 -6 -10 -4 0 7 18 20 15 33
-5 18 -10 -7 -15 -9 -11 -5 4 5 0 15 -10 23 -16 12 -16 14 2 28 11 8 16 18 13
22 -4 4 -13 1 -19 -5 -15 -15 -28 -16 -28 -2 0 6 6 9 13 8 8 -2 11 8 10 27 -1
17 1 22 4 11 4 -15 7 -16 15 -5 8 11 9 10 4 -4 -3 -10 -2 -16 2 -13 5 3 8 -8
8 -25 0 -20 -4 -28 -13 -25 -7 3 -13 1 -13 -3 0 -16 28 -20 34 -6 3 9 12 12
23 8 15 -5 15 -4 -2 10 -17 13 -17 17 -6 31 8 9 20 15 28 12 8 -3 11 -1 8 4
-11 18 10 10 28 -10 10 -12 22 -18 27 -15 6 3 10 2 10 -4 0 -5 -10 -12 -22
-14 -15 -3 -11 -4 9 -4 27 1 30 4 22 19 -5 10 -7 18 -3 18 4 0 -3 9 -16 20
-14 12 -30 18 -39 14 -9 -3 -22 -7 -28 -7 -7 0 -13 -3 -13 -7 0 -4 -7 -7 -15
-7 -8 0 -15 4 -15 9 0 4 8 8 18 8 13 0 14 2 4 9 -11 7 -11 9 2 14 8 3 18 2 21
-3 4 -6 11 -10 17 -10 7 0 7 4 -1 13 -6 8 -8 17 -4 20 9 10 15 8 8 -2z m-62
-18 c-3 -7 -6 -13 -8 -13 -2 0 -5 6 -8 13 -3 8 1 14 8 14 7 0 11 -6 8 -14z
m142 7 c-3 -5 -12 -10 -18 -10 -7 0 -6 4 3 10 19 12 23 12 15 0z m785 -20 c0
-5 -2 -10 -4 -10 -3 0 -8 5 -11 10 -3 6 -1 10 4 10 6 0 11 -4 11 -10z m-830
-25 c20 -24 6 -28 -15 -5 -10 11 -13 20 -8 20 6 0 16 -7 23 -15z m290 8 c0 -5
-5 -15 -10 -23 -7 -12 -9 -10 -7 8 1 19 17 33 17 15z m600 -46 c0 -5 -13 1
-30 13 -39 27 -39 34 0 12 16 -9 30 -21 30 -25z m-560 29 c0 -3 -4 -8 -10 -11
-5 -3 -10 -1 -10 4 0 6 5 11 10 11 6 0 10 -2 10 -4z m6 -45 c10 8 14 8 14 0 0
-6 -4 -11 -10 -11 -5 0 -9 -11 -8 -25 1 -14 7 -24 13 -22 5 2 9 13 7 23 -2 18
-2 18 9 0 9 -15 9 -21 1 -24 -7 -2 -10 -8 -7 -13 4 -5 -2 -6 -12 -2 -16 6 -16
5 -5 -9 7 -9 22 -15 33 -13 10 2 19 0 19 -4 0 -5 -11 -8 -25 -8 -14 0 -25 4
-25 10 0 13 -29 -24 -30 -37 0 -5 6 -4 13 1 17 15 44 12 44 -4 0 -9 -4 -10
-11 -3 -17 17 -29 11 -15 -7 11 -15 11 -16 0 -6 -7 6 -19 9 -25 7 -6 -2 -17 5
-23 16 -11 16 -10 18 2 14 11 -5 13 -2 9 9 -3 9 -12 13 -20 10 -8 -3 -14 0
-14 7 0 6 5 8 10 5 6 -3 10 -1 10 4 0 6 -5 11 -11 11 -5 0 -8 4 -5 9 4 5 1 11
-6 13 -6 2 -12 14 -13 25 -1 14 3 19 12 16 7 -3 13 0 13 6 0 6 -5 11 -12 11
-6 0 -8 3 -4 7 4 4 18 -6 31 -22 26 -32 34 -23 10 9 -8 11 -15 25 -15 30 1 6
8 -2 16 -17 12 -23 18 -26 30 -16z m14 25 c0 -2 -7 -7 -16 -10 -8 -3 -12 -2
-9 4 6 10 25 14 25 6z m-485 -65 c3 -5 2 -12 -3 -15 -5 -3 -9 1 -9 9 0 17 3
19 12 6z m-180 -28 c-1 -16 3 -31 9 -35 7 -5 4 -8 -6 -8 -10 0 -19 5 -19 10
-1 6 -2 16 -3 23 -2 10 12 37 19 37 1 0 1 -12 0 -27z m566 -16 c-6 -8 -7 -18
-3 -22 4 -5 1 -5 -6 -1 -10 6 -10 11 -1 22 6 8 14 14 16 14 3 0 0 -6 -6 -13z
m15 -36 c-3 -5 1 -12 10 -15 9 -4 14 -9 11 -13 -9 -8 -38 17 -31 28 3 5 7 9
10 9 3 0 3 -4 0 -9z m-26 -15 c0 -2 -8 -10 -17 -17 -16 -13 -17 -12 -4 4 13
16 21 21 21 13z m-495 -36 c-3 -5 2 -10 12 -11 16 0 16 -1 -2 -9 -11 -5 -17
-9 -12 -11 20 -5 28 -7 37 -8 6 0 10 -6 10 -13 0 -9 -3 -9 -11 -1 -6 6 -18 9
-25 6 -8 -3 -14 -1 -15 3 0 5 -2 19 -5 32 -2 12 1 22 7 22 5 0 7 -4 4 -10z
m559 -5 c-5 -11 -2 -13 10 -9 9 3 13 10 10 15 -3 5 3 6 12 2 16 -6 15 -8 -4
-16 -26 -12 -29 -25 -4 -23 9 0 18 -3 19 -9 0 -5 -3 -9 -8 -7 -5 1 -9 -4 -9
-10 0 -7 -9 -2 -20 12 -21 27 -26 60 -10 60 5 0 7 -7 4 -15z m91 -55 c-5 -8
-11 -8 -17 -2 -6 6 -7 16 -3 22 5 8 11 8 17 2 6 -6 7 -16 3 -22z m-520 10 c-3
-5 -1 -10 4 -10 6 0 11 6 11 13 0 8 4 7 10 -3 5 -8 10 -10 10 -4 0 6 6 11 13
11 8 0 14 -6 14 -13 0 -7 -6 -10 -13 -7 -6 2 -15 0 -19 -6 -4 -8 -12 -8 -26
-1 -20 11 -26 30 -8 30 5 0 7 -4 4 -10z m99 -2 c-3 -4 -9 -8 -15 -8 -5 0 -9 4
-9 8 0 5 7 9 15 9 8 0 12 -4 9 -9z m759 -14 c-4 -11 -9 -12 -19 -3 -19 15 -18
20 3 12 12 -5 14 -3 8 7 -5 8 -4 11 3 6 6 -4 9 -13 5 -22z"/>
<path d="M820 1076 c0 -2 8 -10 18 -17 15 -13 16 -12 3 4 -13 16 -21 21 -21
13z"/>
<path d="M916 1061 c-3 -5 -15 -7 -25 -4 -10 3 -21 1 -24 -4 -3 -5 12 -9 34
-8 38 0 49 8 30 20 -5 3 -12 1 -15 -4z"/>
<path d="M530 910 c0 -5 5 -10 10 -10 6 0 10 5 10 10 0 6 -4 10 -10 10 -5 0
-10 -4 -10 -10z"/>
<path d="M870 865 c-9 -10 -9 -15 -1 -15 6 0 19 -16 28 -35 11 -23 19 -31 24
-23 5 7 3 16 -3 19 -19 12 -18 38 0 33 11 -4 10 -1 -3 7 -11 7 -23 16 -26 21
-3 5 -12 2 -19 -7z"/>
<path d="M641 1188 c2 -2 18 -15 35 -31 l31 -27 19 22 19 23 -22 -18 c-12 -11
-24 -14 -27 -9 -3 6 -3 12 1 15 5 2 3 2 -4 1 -6 -2 -17 4 -23 12 -7 8 -17 14
-23 14 -6 0 -8 -1 -6 -2z"/>
<path d="M1066 1163 c-10 -25 -7 -29 23 -28 19 0 26 4 21 10 -5 5 -8 14 -7 19
3 16 -31 15 -37 -1z m28 -8 c-4 -8 -11 -12 -16 -9 -6 4 -5 10 3 15 19 12 19
11 13 -6z"/>
<path d="M1318 1166 c-10 -7 -18 -17 -18 -22 0 -4 5 -3 12 4 9 9 16 8 30 -5
18 -16 18 -16 12 0 -3 9 -10 17 -16 17 -5 0 -6 5 -3 10 8 13 4 12 -17 -4z"/>
<path d="M1430 1169 c0 -5 5 -7 10 -4 6 3 10 8 10 11 0 2 -4 4 -10 4 -5 0 -10
-5 -10 -11z"/>
<path d="M965 1149 c-11 -16 -1 -19 13 -3 7 8 8 14 3 14 -5 0 -13 -5 -16 -11z"/>
<path d="M1150 1150 c0 -5 5 -10 10 -10 6 0 10 5 10 10 0 6 -4 10 -10 10 -5 0
-10 -4 -10 -10z"/>
<path d="M1480 1149 c0 -4 6 -9 13 -12 8 -3 14 0 14 7 0 7 -6 13 -14 13 -7 0
-13 -4 -13 -8z"/>
<path d="M835 1110 c3 -5 8 -10 11 -10 2 0 4 5 4 10 0 6 -5 10 -11 10 -5 0 -7
-4 -4 -10z"/>
<path d="M281 1073 c-1 -17 16 -25 25 -12 4 7 3 9 -4 5 -5 -3 -13 0 -15 6 -4
9 -6 10 -6 1z"/>
<path d="M1450 1025 c0 -7 62 -45 73 -45 4 0 7 5 7 11 0 5 -4 8 -8 5 -5 -3
-23 4 -40 14 -18 11 -32 17 -32 15z"/>
<path d="M1469 988 c-6 -24 -5 -38 2 -38 5 0 9 4 9 10 0 5 7 7 15 4 8 -4 15
-4 15 0 0 5 -39 29 -41 24z"/>
<path d="M206 908 c3 -4 9 -8 15 -8 5 0 9 4 9 8 0 5 -7 9 -15 9 -8 0 -12 -4
-9 -9z"/>
<path d="M1527 903 c3 -7 6 -13 8 -13 2 0 5 6 8 13 3 8 -1 14 -8 14 -7 0 -11
-6 -8 -14z"/>
<path d="M1530 729 c0 -5 5 -7 10 -4 6 3 10 8 10 11 0 2 -4 4 -10 4 -5 0 -10
-5 -10 -11z"/>
<path d="M310 671 c0 -6 4 -13 10 -16 6 -3 7 1 4 9 -7 18 -14 21 -14 7z"/>
<path d="M765 660 c-3 -5 -12 -7 -19 -4 -8 3 -17 1 -21 -5 -4 -8 -12 -8 -27 0
-12 7 -18 7 -14 1 3 -6 2 -12 -4 -14 -6 -2 -6 -8 0 -18 8 -13 10 -12 10 3 0 9
5 17 11 17 5 0 7 -6 3 -12 -6 -10 -4 -10 7 0 15 14 33 17 25 4 -3 -5 1 -9 9
-9 12 0 12 3 2 15 -10 13 -9 14 8 4 18 -9 21 -7 21 9 0 21 -2 23 -11 9z"/>
<path d="M866 632 c-3 -5 1 -9 9 -9 8 0 12 4 9 9 -3 4 -7 8 -9 8 -2 0 -6 -4
-9 -8z"/>
<path d="M1415 629 c-3 -4 2 -6 10 -5 21 3 28 13 10 13 -9 0 -18 -4 -20 -8z"/>
<path d="M655 610 c3 -5 8 -10 11 -10 2 0 4 5 4 10 0 6 -5 10 -11 10 -5 0 -7
-4 -4 -10z"/>
<path d="M1310 610 c0 -5 7 -7 15 -4 8 4 15 8 15 10 0 2 -7 4 -15 4 -8 0 -15
-4 -15 -10z"/>
<path d="M515 590 c3 -5 8 -10 11 -10 2 0 4 5 4 10 0 6 -5 10 -11 10 -5 0 -7
-4 -4 -10z"/>
</g>
</svg>
